<?xml version="1.0" encoding="utf-8"?>
<!-- Generator: Adobe Illustrator 22.0.0, SVG Export Plug-In . SVG Version: 6.00 Build 0)  -->
<svg version="1.1" id="Capa_1" xmlns="http://www.w3.org/2000/svg" xmlns:xlink="http://www.w3.org/1999/xlink" x="0px" y="0px"
	 viewBox="0 0 100 100" style="enable-background:new 0 0 100 100;" xml:space="preserve">
<style type="text/css">
	.st0{fill:#FFFFFF;}
	.st1{display:none;fill:#FFFFFF;}
	.st2{fill:#1C1C1C;}
	.st3{fill:#FF678D;}
	.st4{fill:#010101;}
</style>
<path class="st0" d="M20,0h60c11,0,20,9,20,20v60c0,11-9,20-20,20H20C9,100,0,91,0,80V20C0,9,9,0,20,0z"/>
<path class="st1" d="M21.6,39.1L21.6,39.1c0,0.7-0.2,1.2-0.6,1.6v0c-0.7,0.9-1.6,2.4-1.6,4.9c0,2.3,0.7,3.9,1.6,4.9
	c0.4,0.5,0.6,1.1,0.6,1.7c0,1.2,0.5,2.3,1.3,3.1c0.8,0.8,1.9,1.3,3.1,1.3H27c0.3,0,0.6-0.1,0.8-0.3c0.2-0.2,0.3-0.5,0.3-0.8V35.8
	c0-0.3-0.1-0.6-0.3-0.8c-0.2-0.2-0.5-0.3-0.8-0.3h-1.1c-1.2,0-2.3,0.5-3.1,1.3C22,36.8,21.6,37.9,21.6,39.1L21.6,39.1z M76.8,40.5
	l-0.1,0c-0.1,0-0.2-0.1-0.3-0.2c-0.1-0.1-0.1-0.2-0.1-0.3V23.5c0-1.7-1.1-3.3-2.9-3.9c-1.6-0.6-3.3-0.1-4.3,1.2
	c-2.1,2.5-4.5,4.9-7,7.1c-3.2,2.7-6.3,4.7-9.2,5.8c-0.2,0.1-0.4,0.2-0.5,0.4c-0.1,0.2-0.2,0.4-0.2,0.6v21.2c0,0.4,0.1,0.8,0.4,1.2
	c0.2,0.4,0.6,0.6,1,0.8c2.6,1.1,5.5,3,8.5,5.5c2.6,2.2,4.9,4.6,7.1,7.1c0.3,0.4,0.8,0.8,1.3,1c0.5,0.2,1,0.3,1.6,0.3
	c0.5,0,1-0.1,1.4-0.2c1.8-0.6,2.9-2.1,2.9-3.8V51.3c0-0.1,0-0.3,0.1-0.4c0.1-0.1,0.2-0.2,0.3-0.2l0.1,0c1.3-0.4,3.8-1.9,3.8-5.1
	S78.1,40.9,76.8,40.5z M47.8,58.8v-23c0-0.3-0.1-0.6-0.3-0.8c-0.2-0.2-0.5-0.3-0.8-0.3H33.6c-0.3,0-0.6,0.1-0.8,0.3
	c-0.2,0.2-0.3,0.5-0.3,0.8v41.6c0,0.9,0.3,1.7,1,2.3c0.6,0.6,1.4,1,2.3,1H43c0.7,0,1.4-0.1,2-0.4c0.6-0.3,1.2-0.7,1.6-1.3
	c0.4-0.6,0.7-1.2,0.8-1.9s0.1-1.4-0.1-2.1c-0.2-0.7-0.5-1.5-0.8-2.4c-1.1-3.1-2.5-5.1-2.9-9.5c1.1,0,2.2-0.5,3-1.3
	C47.4,61,47.8,59.9,47.8,58.8z"/>
<g>
	<path d="M50,78c-0.2,0.2-0.5,0.3-0.7,0.5c-0.6,0.4-1.3,0.9-2,1.2c-0.6,0.3-1.1,0.5-1.8,0.6c-0.8,0.2-1.7,0.1-2.5,0
		c-1.2-0.2-2.2-0.7-3.3-1.3c-1.5-0.9-2.8-2-4-3.3c-1.5-1.6-2.7-3.4-3.6-5.4c-0.4-0.9-0.8-1.8-1.2-2.7c-1-2.1-2.2-4.1-3.5-5.9
		c-0.7-1-1.3-1.9-1.9-3c-0.9-1.6-1.8-3.2-2.5-4.9c-0.3-0.7-0.6-1.5-0.8-2.3c0-0.2-0.1-0.4-0.2-0.6c-0.1,0.1-0.2,0.2-0.2,0.4
		c-0.5,0.9-1.1,1.7-1.7,2.5c-0.4,0.5-0.8,1-1.3,1.5c-0.3,0.3-0.7,0.6-1.1,0.8c-1,0.6-2,0.7-3.1,0.4c-1.8-0.5-3.1-1.5-3.8-3.2
		c-0.6-1.3-1-2.7-1.2-4.1c-0.1-0.6-0.1-1.3-0.2-1.9c0-0.9-0.1-1.8,0-2.7c0.1-0.9,0.1-1.9,0.2-2.8c0.1-1,0.1-2,0.1-3
		c0-0.9,0.1-1.8,0.1-2.7c0-0.5,0-1,0-1.5c0-1.2,0.3-2.3,0.7-3.5c0.5-1.4,1.4-2.5,2.5-3.3c1.4-1,2.9-1.6,4.6-1.9
		c0.9-0.2,1.7-0.2,2.6-0.3c0.9-0.1,1.8-0.2,2.7-0.3c0.6-0.1,1.2-0.1,1.8-0.2c1-0.1,2.1-0.2,3.1-0.3c0.7-0.1,1.4-0.1,2.1-0.1
		c1,0,2,0,3-0.1c0.7,0,1.4-0.1,2.1-0.3c0.8-0.2,1.5-0.6,2.2-1.1c0.9-0.8,1.9-1.4,3-2c1-0.6,2-1,3.1-1.2c0.4-0.1,0.9-0.1,1.3-0.2
		c0.5-0.1,1.1-0.1,1.6-0.1c1.9-0.1,3.7-0.1,5.6-0.1c1.3,0,2.5,0.1,3.8,0.2c1.2,0.2,2.4,0.5,3.5,1.2c1.1,0.6,2.2,1.3,3.2,2.1
		c0.9,0.7,1.9,1.2,3,1.3c0.7,0.1,1.5,0.2,2.2,0.2c0.9,0,1.7,0,2.6,0.1c0.9,0,1.8,0.1,2.7,0.2c0.7,0.1,1.3,0.1,2,0.2
		c1,0.1,1.9,0.2,2.9,0.3c0.9,0.1,1.8,0.2,2.6,0.3c0.9,0.1,1.8,0.2,2.6,0.4c1.2,0.3,2.3,0.8,3.3,1.5c1.8,1.1,2.8,2.7,3.3,4.7
		c0.3,1.1,0.4,2.2,0.3,3.3c0,0.9,0,1.9,0.1,2.8c0,0.9,0.1,1.8,0.1,2.7c0.1,1,0.1,2.1,0.2,3.1c0.1,0.9,0,1.9,0,2.8
		c0,0.9-0.1,1.8-0.2,2.7c-0.1,0.5-0.2,1-0.3,1.4c-0.2,0.8-0.5,1.5-0.8,2.2c-0.8,1.8-2.2,2.8-4.1,3.3c-0.8,0.2-1.6,0.1-2.4-0.3
		c-0.5-0.3-1-0.6-1.5-1c-0.6-0.6-1.1-1.2-1.6-1.9c-0.5-0.7-1-1.4-1.4-2.2c0-0.1-0.1-0.2-0.2-0.2c-0.4,1.7-1.1,3.3-1.9,4.9
		c-0.7,1.4-1.5,2.8-2.3,4.1c-0.3,0.4-0.6,0.9-0.9,1.3c-1.8,2.4-3.2,4.9-4.4,7.6c-0.3,0.7-0.6,1.3-0.9,2c-1.6,3.2-3.9,5.8-6.8,7.7
		c-1,0.7-2.2,1.2-3.4,1.5c-1.6,0.4-3.2,0.3-4.7-0.5c-0.8-0.4-1.5-0.9-2.3-1.4C50.3,78.2,50.1,78.1,50,78z"/>
	<path class="st2" d="M29.1,62.9c-0.4-0.7-0.9-1.3-1.3-1.9c-0.1-0.2-0.2-0.3-0.3-0.5c-0.5-0.7-0.9-1.4-1.3-2.1
		c-0.4-0.7-0.8-1.4-1.2-2.1c-0.3-0.6-0.7-1.2-1-1.9c-0.3-0.7-0.6-1.3-0.8-2c-0.2-0.5-0.3-1-0.4-1.4c-0.1-0.4-0.1-0.9,0-1.3
		c0-0.1,0.1-0.1,0.1-0.2c0.1-0.2,0.2-0.4,0.3-0.6c0.5-0.8,1-1.6,1.5-2.4c0.8-1.2,1.5-2.4,2.3-3.5c0.7-1.1,1.5-2.2,2.2-3.3
		c0.5-0.7,1-1.4,1.6-2.2c0.4-0.5,0.7-0.9,1.1-1.4c0.3-0.4,0.7-0.8,1.1-1.3c0.2-0.3,0.5-0.5,0.7-0.8c-0.1-0.1-0.1,0-0.1,0
		c-0.3,0.3-0.7,0.6-1,1c-0.3,0.4-0.6,0.6-0.9,1c-0.2,0.3-0.4,0.5-0.6,0.7c-0.4,0.5-0.8,1-1.2,1.5c-0.4,0.5-0.8,1.1-1.2,1.6
		c-0.2,0.3-0.5,0.6-0.7,0.9c-0.3,0.4-0.6,0.8-0.9,1.2c-0.2,0.2-0.3,0.4-0.5,0.6c-0.3,0.4-0.6,0.9-0.9,1.3c-0.5,0.7-1,1.4-1.5,2.1
		c-0.1,0.2-0.3,0.4-0.4,0.6c-0.5,0.8-1.1,1.6-1.6,2.4c-0.4,0.5-0.7,1.1-1,1.6c-0.6,1-1.2,2-1.9,2.9c-0.4,0.5-0.9,1-1.4,1.4
		c-0.4,0.3-0.8,0.6-1.3,0.8c-0.6,0.2-1.2,0.2-1.8,0c-0.8-0.2-1.5-0.5-2.1-1c-0.5-0.4-0.9-0.9-1.2-1.5c-0.2-0.5-0.4-1-0.6-1.5
		c-0.2-0.5-0.4-1-0.5-1.5c-0.1-0.4-0.2-0.8-0.2-1.2c-0.1-0.3,0-0.7-0.1-1c0-0.1,0-0.2,0-0.3c0-0.4,0-0.8,0-1.1c0-0.3,0-0.5-0.1-0.8
		c0-0.2,0-0.4,0-0.5c0.1-0.2,0.1-0.5,0.1-0.7c0-0.3,0-0.6,0-0.9c0.1-0.4,0-0.9,0.1-1.3c0.1-0.4,0.1-0.9,0.1-1.3c0,0,0-0.1,0-0.1
		c0.1-0.4,0.1-0.8,0.1-1.3c0-0.2,0-0.5,0.1-0.7c0-0.1,0-0.2,0-0.3c0-0.5,0-1,0-1.5c0-0.2,0-0.5,0.1-0.7c0-0.4,0.1-0.9,0-1.3
		c-0.1-0.3-0.1-0.5,0-0.8c0-0.1,0-0.2,0-0.2c0-0.8,0.2-1.5,0.4-2.3c0.2-0.9,0.6-1.7,1.2-2.4c0.3-0.3,0.6-0.6,0.9-0.9
		c0.2-0.2,0.5-0.4,0.7-0.6c0.8-0.5,1.6-0.9,2.5-1.2c0.6-0.2,1.2-0.4,1.8-0.4c0.4,0,0.8-0.1,1.2-0.2c0.5-0.1,1-0.1,1.5-0.2
		c0.4-0.1,0.8,0,1.1-0.1c0.1,0,0.2,0,0.3,0c0.1,0,0.3,0,0.4,0c0.1,0,0.2,0,0.3,0c0.2,0,0.3,0,0.5-0.1c0.1,0,0.2,0,0.3,0
		c0.2,0,0.3,0,0.5-0.1c0,0,0.1,0,0.1,0c0.4,0,0.7-0.1,1.1-0.1c0.2,0,0.4-0.1,0.6-0.1c0.2,0,0.4,0,0.6-0.1c0.1,0,0.2,0,0.3,0
		c0.2,0,0.3,0,0.5-0.1c0,0,0.1,0,0.1,0c0.5,0,1.1-0.1,1.6-0.1c0.2,0,0.4,0,0.6-0.1c0.1,0,0.2,0,0.4,0c0.7,0,1.5,0,2.2,0
		c0.2,0,0.4,0,0.6-0.1c0.1,0,0.2,0,0.3,0c0.4,0,0.8,0,1.2-0.1c0.5-0.1,1.1-0.2,1.6-0.4c0.7-0.3,1.4-0.7,2-1.2c0.5-0.4,0.9-0.7,1.4-1
		c0.7-0.4,1.3-0.9,2-1.2c0.7-0.3,1.4-0.6,2.2-0.7c0.4-0.1,0.8-0.1,1.2-0.2c0.4,0,0.8,0,1.2-0.1c0.6-0.1,1.1,0,1.7-0.1
		c0.2,0,0.4,0,0.6-0.1c0.3-0.1,0.7-0.1,1,0c0.2,0,0.3,0.1,0.5,0.1c0.3,0,0.6,0,0.9,0c0.3,0,0.5-0.1,0.8-0.1c0.1,0,0.3,0,0.4,0
		c0.1,0,0.2,0,0.3,0c0.3,0,0.6,0,0.9,0c0.3,0,0.5,0,0.8,0.1c0.2,0,0.4,0,0.6,0c0.2,0,0.4,0,0.6,0.1c0,0,0.1,0,0.2,0
		c1.4,0.1,2.6,0.5,3.8,1.1c0.9,0.5,1.8,1.1,2.6,1.7c0.3,0.2,0.5,0.4,0.8,0.6c0.8,0.6,1.7,1,2.7,1.1c0.6,0.1,1.2,0.2,1.8,0.2
		c0.1,0,0.1,0,0.2,0c0.3,0.1,0.7,0.1,1,0.1c0.5,0,1.1,0,1.6,0c0.3,0,0.6,0,0.8,0.1c0.2,0,0.4,0,0.6,0c0.2,0,0.4,0,0.6,0.1
		c0.1,0,0.2,0,0.2,0c0.2,0,0.5,0,0.7,0.1c0.1,0,0.2,0,0.2,0c0.2,0,0.4,0,0.6,0.1c0.1,0,0.2,0,0.3,0c0.1,0,0.3,0,0.4,0.1
		c0,0,0.1,0,0.1,0c0.4,0,0.8,0.1,1.1,0.1c0.4,0.1,0.8,0,1.2,0.1c0,0,0.1,0,0.1,0c0.4,0,0.8,0.1,1.1,0.1c0.4,0.1,0.8,0,1.2,0.1
		c0.1,0,0.2,0,0.2,0c0.1,0,0.3,0,0.4,0.1c0.1,0,0.2,0,0.4,0c0.1,0,0.3,0,0.4,0.1c0,0,0.1,0,0.2,0c0.3,0,0.6,0.1,0.9,0.1
		c0.4,0.1,0.9,0.2,1.3,0.3c0.5,0.1,1,0.3,1.5,0.5c0.8,0.4,1.6,0.8,2.4,1.3c0.6,0.5,1.2,1.1,1.6,1.8c0.4,0.7,0.6,1.4,0.8,2.1
		c0.1,0.4,0.2,0.8,0.2,1.2c0,0.4,0.1,0.8,0.1,1.2c0,1.2,0,2.3,0,3.5c0,0.2,0,0.3,0.1,0.5c0,0.1,0,0.2,0,0.3c0,0.3,0,0.6,0,0.9
		c0,0.2,0,0.4,0.1,0.6c0,0.1,0,0.3,0,0.4c0,0.4,0,0.8,0.1,1.1c0.1,0.2,0,0.4,0,0.6c0,0.2,0,0.4,0.1,0.6c0,0.1,0,0.3,0,0.4
		c0,0.3,0,0.6,0.1,1c0,0.1,0,0.2,0,0.3c0,0.4,0,0.8,0,1.2c0,0.3,0,0.6-0.1,0.9c-0.1,0.2,0,0.5,0,0.7c0,0.2,0,0.4-0.1,0.6
		c0,0,0,0.1,0,0.2c0,0.7-0.2,1.4-0.4,2c-0.2,0.8-0.5,1.5-0.8,2.3c-0.2,0.4-0.4,0.8-0.7,1.2c-0.1,0.2-0.2,0.4-0.4,0.5
		c-0.1,0.1-0.3,0.2-0.4,0.3c-0.6,0.5-1.4,0.8-2.2,1c-0.5,0.1-0.9,0.1-1.4,0c-0.5-0.1-0.9-0.3-1.3-0.6c-0.5-0.4-0.9-0.8-1.3-1.2
		c-0.6-0.7-1.1-1.4-1.5-2.1c-0.4-0.6-0.8-1.3-1.2-1.9c-0.3-0.5-0.6-0.9-0.9-1.4c-0.7-1.1-1.5-2.2-2.3-3.4c-0.5-0.7-0.9-1.3-1.4-1.9
		c-0.6-0.8-1.2-1.7-1.8-2.5c-0.6-0.7-1.1-1.5-1.7-2.2c-0.4-0.5-0.8-0.9-1.1-1.4c-0.2-0.3-0.4-0.5-0.6-0.7c-0.3-0.3-0.5-0.6-0.8-1
		c0,0,0,0-0.1-0.1c-0.7-0.7-1.4-1.5-2.1-2.2c0,0,0,0-0.1,0c-0.1,0.1,0,0.1,0,0.1c0.1,0.1,0.2,0.3,0.4,0.4c0.4,0.4,0.8,0.8,1.2,1.3
		c0.4,0.4,0.7,0.9,1.1,1.3c0.4,0.4,0.8,0.9,1.1,1.4c0.5,0.6,1,1.3,1.4,2c0.5,0.7,1,1.5,1.6,2.2c0.8,1.1,1.6,2.3,2.3,3.5
		c0.6,0.9,1.2,1.9,1.8,2.8c0.3,0.5,0.6,0.9,0.9,1.4c0.1,0.2,0.2,0.4,0.2,0.6c0,0.6-0.1,1.2-0.3,1.7c-0.3,1-0.7,1.9-1.1,2.8
		c-0.3,0.6-0.6,1.1-0.9,1.7c-0.3,0.6-0.7,1.3-1.1,1.9c-0.4,0.7-0.9,1.5-1.4,2.2c-0.2,0.3-0.4,0.6-0.7,0.9c-0.4,0.5-0.7,1-1.1,1.6
		c-0.3-0.3-0.7-0.4-1-0.8c-0.3-0.3-0.6-0.5-0.9-0.8c-2.1-1.7-4.3-3.2-6.4-4.8c-1.7-1.3-3.2-2.8-4.3-4.7c-1-1.7-1.5-3.4-1.6-5.4
		c-0.1-1.8-0.2-3.6-0.3-5.3c0-0.6,0-1.2,0-1.8c0.1-2.1-0.4-4-1.1-5.9c-1-2.9-2.5-5.5-4.2-8.1c-0.2-0.2-0.2-0.5-0.5-0.7
		c0,0-0.1,0-0.1-0.1c-0.2-0.3-0.3-0.6-0.5-0.9c-0.3,0.4-0.4,0.9-0.7,1.2c-0.2,0.1-0.3,0.3-0.4,0.5c-0.8,1.2-1.6,2.5-2.3,3.8
		c-1.3,2.6-2.5,5.2-2.9,8.2c-0.1,0.5-0.1,1-0.1,1.5c0,1.5,0,3-0.1,4.4c-0.1,1.5-0.1,3.1-0.3,4.6c-0.2,1.9-1.1,3.6-2.1,5.1
		c-1.3,1.9-3,3.2-4.8,4.5c-1.9,1.4-3.8,2.8-5.7,4.2c-0.1,0.1-0.2,0.1-0.2,0.3c-0.2,0.3-0.5,0.4-0.8,0.6
		C29.4,62.7,29.2,62.8,29.1,62.9z"/>
	<path class="st0" d="M29.1,62.9c0-0.1,0-0.2,0.1-0.2c0.3-0.2,0.5-0.4,0.8-0.5c0.1-0.1,0.2-0.1,0.3-0.2c0.1-0.2,0.3-0.3,0.5-0.4
		c2.3-1.5,4.5-3.1,6.7-4.7c1.9-1.4,3.5-3.1,4.6-5.2c0.8-1.4,1.2-2.9,1.3-4.4c0.2-2.2,0.3-4.3,0.3-6.5c0-0.5,0.1-1,0.1-1.5
		c-0.1-1.7,0.3-3.2,0.8-4.8c0.4-1.4,1-2.8,1.7-4.1c0.9-1.8,1.8-3.6,2.8-5.3c0-0.1,0.1-0.1,0.2-0.2c0,0,0,0,0.1,0
		c0.3-0.4,0.4-0.8,0.7-1.1c0-0.1,0-0.1,0.1-0.2c0.2,0.4,0.4,0.8,0.7,1.1c0,0,0,0,0.1,0c0,0,0.1,0.1,0.1,0.1c1.5,2.6,2.9,5.2,4,8
		c0.6,1.5,1.1,3.1,1.3,4.7c0.1,0.5,0.1,1.1,0.1,1.6c0,1.9,0.1,3.9,0.2,5.8c0.1,1.1,0.1,2.2,0.3,3.3c0.3,1.9,1.2,3.6,2.3,5.2
		c1.1,1.5,2.5,2.7,3.9,3.7c2.2,1.7,4.5,3.2,6.8,4.8c0,0,0.1,0,0.1,0.1c0,0,0,0,0,0c0,0,0.1,0,0.1,0.1c0,0,0,0.1,0.1,0.1
		c0.3,0.2,0.6,0.4,0.9,0.6c0.1,0.1,0.1,0.1,0.1,0.2c-0.2,0.2-0.3,0.5-0.5,0.7c-1,1.6-1.9,3.3-2.6,5c-0.3,0.7-0.6,1.3-0.9,2
		c-1.5,3-3.7,5.5-6.4,7.3c-0.9,0.6-2,1.1-3.1,1.5c-0.5,0.1-1,0.2-1.5,0.3c-0.8,0.1-1.5-0.1-2.2-0.3c-0.2-0.1-0.3-0.1-0.5-0.2
		c-0.9-0.4-1.8-1-2.6-1.6c0.1-0.1,0.2-0.2,0.3-0.3c1.5-1.2,2.9-2.6,3.9-4.2c0.7-1.1,1.4-2.3,1.8-3.5c0.3-0.8,0.4-1.5,0.4-2.3
		c0-0.3,0-0.7-0.1-1c-0.2-0.8-0.9-1.3-1.8-1.4c-0.8,0-1.5,0.2-2.2,0.5c-0.6,0.3-1.2,0.8-1.7,1.4c-0.5,0.5-0.8,1.1-1.2,1.7
		c-0.1,0.1-0.1,0.2-0.2,0.3c-0.1-0.1-0.1-0.2-0.2-0.3c-0.4-0.8-1-1.5-1.6-2.1c-0.6-0.6-1.4-1.1-2.3-1.3c-0.4-0.1-0.8-0.2-1.2-0.1
		c-0.9,0-1.5,0.6-1.7,1.4c-0.1,0.3-0.1,0.6-0.1,0.8c0,1,0.2,1.9,0.6,2.8c1,2.5,2.6,4.6,4.6,6.4c0.4,0.3,0.7,0.6,1.1,0.9
		c0.1,0.1,0.2,0.2,0.3,0.2c0,0.1-0.1,0.1-0.2,0.2c-0.6,0.4-1.3,0.9-2,1.2c-0.6,0.3-1.3,0.6-2,0.7c-0.8,0.1-1.6,0-2.3-0.1
		c-1-0.2-2-0.7-2.9-1.2c-1.6-1-3-2.2-4.3-3.7c-1.2-1.4-2.3-3-3-4.7c-0.4-1-0.8-1.9-1.3-2.8c-0.6-1.3-1.4-2.6-2.2-3.9
		C29.2,63.1,29.1,63,29.1,62.9z"/>
	<path class="st3" d="M50,77.1c-0.1,0-0.1-0.1-0.2-0.1c-1.7-1.3-3.2-2.9-4.4-4.7c-0.6-0.9-1-1.8-1.4-2.8c-0.3-0.8-0.4-1.6-0.4-2.4
		c0-0.3,0.1-0.5,0.1-0.8c0.1-0.4,0.4-0.6,0.8-0.7c0.3-0.1,0.5-0.1,0.8,0c1,0.1,1.8,0.6,2.5,1.2c0.7,0.7,1.2,1.4,1.7,2.3
		c0.1,0.2,0.2,0.3,0.3,0.5c0,0.1,0.1,0.2,0.1,0.2c0.1,0.1,0.1,0,0.2,0c0.1,0,0.1,0,0.2,0c0.1,0,0.1,0,0.2-0.1c0-0.1,0.1-0.2,0.1-0.3
		c0.5-1,1.1-1.9,1.9-2.6c0.6-0.5,1.2-1,2-1.1c0.2,0,0.4-0.1,0.6-0.1c0.2,0,0.4,0,0.6,0c0.4,0.1,0.6,0.3,0.8,0.7
		c0.1,0.2,0.1,0.4,0.1,0.7c0,0.8-0.1,1.6-0.4,2.3c-0.7,1.9-1.8,3.6-3.2,5.2c-0.8,0.9-1.6,1.7-2.6,2.4C50.3,77,50.2,77,50,77.1
		C50.1,77.1,50,77.1,50,77.1z"/>
	<path class="st4" d="M69.8,62c0,0-0.1,0-0.1-0.1c-2.3-1.5-4.7-3.2-6.9-4.8c-0.6-0.4-1.2-0.9-1.7-1.4c-1.7-1.5-3-3.3-3.8-5.4
		c-0.3-0.8-0.5-1.7-0.6-2.6c-0.1-1-0.2-2.1-0.2-3.1c-0.1-1.2-0.1-2.3-0.2-3.5c0-0.6,0-1.3,0-1.9c0-1.4-0.2-2.7-0.6-4.1
		c-0.4-1.4-0.9-2.8-1.6-4.1c-0.9-2-1.9-3.9-3-5.8c-0.1-0.1-0.1-0.3-0.2-0.4c0,0,0-0.1-0.1-0.1l0,0c0,0,0-0.1,0.1-0.1
		c0.1,0.1,0.1,0.2,0.2,0.3c0.5,0.7,0.9,1.4,1.4,2.2c0.2,0.4,0.4,0.8,0.7,1.2c0.4,0.6,0.7,1.3,1,1.9c0.2,0.5,0.4,0.9,0.6,1.4
		c0.2,0.4,0.4,0.8,0.5,1.2c0.3,0.8,0.6,1.6,0.8,2.5c0.1,0.5,0.3,1,0.3,1.5c0.1,0.3,0.1,0.7,0.1,1c0.1,1.1,0,2.2,0.1,3.3
		c0,0.2,0,0.3,0.1,0.5c0,0.1,0,0.2,0,0.3c0,0.3,0,0.6,0,0.9c0,0.2,0,0.3,0,0.5c0,0.1,0,0.2,0,0.4c0,0.3,0,0.5,0,0.8
		c0,0.1,0,0.2,0,0.2c0.1,0.3,0.1,0.6,0.1,1c0,0.2,0,0.5,0.1,0.7c0,0.1,0,0.1,0,0.2c0,0.4,0.1,0.8,0.1,1.2c0.1,0.7,0.2,1.3,0.4,2
		c0.1,0.4,0.3,0.7,0.4,1.1c0.4,0.7,0.7,1.4,1.2,2.1c0.4,0.6,0.9,1.2,1.4,1.8c0.2,0.2,0.4,0.4,0.6,0.6c0.3,0.3,0.6,0.5,1,0.8
		c0.6,0.5,1.2,0.9,1.8,1.4c0.4,0.3,0.7,0.5,1.1,0.8c0.7,0.5,1.4,1,2.1,1.5c0.6,0.4,1.1,0.9,1.7,1.3c0.4,0.3,0.8,0.6,1.2,0.9
		c0.1,0,0.1,0.1,0.1,0.1c0,0,0,0.1,0,0.1c0,0,0,0-0.1,0c0,0-0.1,0-0.1-0.1l0,0C69.8,62,69.8,62,69.8,62z"/>
	<path class="st4" d="M49.1,25c-0.1,0.1-0.1,0.3-0.2,0.4c-1,1.9-2,3.8-2.9,5.7c-0.7,1.5-1.3,3.1-1.7,4.7c-0.3,1-0.4,2.1-0.4,3.1
		c0,1.3-0.1,2.6-0.1,3.9c-0.1,1.2-0.1,2.5-0.2,3.7c-0.1,1.1-0.2,2.1-0.5,3.1c-0.4,1.2-1,2.3-1.7,3.4c-0.8,1.2-1.8,2.2-2.9,3.1
		c-0.4,0.3-0.9,0.7-1.3,1c-2.2,1.6-4.5,3.2-6.8,4.7c0,0-0.1,0.1-0.1,0.1c0,0-0.1,0-0.1-0.1c0.1-0.2,0.3-0.3,0.5-0.4
		c0.5-0.4,0.9-0.7,1.4-1.1c0.3-0.2,0.5-0.4,0.8-0.6c0.8-0.6,1.6-1.2,2.4-1.8c0.8-0.5,1.5-1.1,2.2-1.6c0.4-0.3,0.8-0.6,1.2-0.9
		c0.2-0.2,0.5-0.4,0.7-0.7c0.5-0.5,0.9-1,1.3-1.6c0.4-0.5,0.7-1.1,1-1.6c0.2-0.3,0.3-0.6,0.4-0.9c0.1-0.2,0.2-0.5,0.3-0.7
		c0.2-0.6,0.4-1.2,0.5-1.8c0.1-0.5,0.1-1,0.2-1.4c0.1-0.5,0-0.9,0.1-1.4c0.1-0.4,0.1-0.9,0.1-1.3c0-0.1,0-0.1,0-0.2
		c0.1-0.4,0.1-0.8,0.1-1.1c0-0.3,0-0.6,0.1-0.8c0-0.1,0-0.2,0-0.3c0-0.9,0-1.8,0-2.7c0-0.2,0-0.4,0.1-0.6c0-0.1,0-0.1,0-0.2
		c0-0.5,0.1-1,0.2-1.5c0.2-1,0.5-1.9,0.8-2.8c0.2-0.6,0.4-1.1,0.6-1.7c0.3-0.7,0.6-1.4,1-2.1c0.2-0.5,0.5-1,0.7-1.4
		c0.2-0.5,0.5-0.9,0.8-1.3c0.4-0.7,0.9-1.4,1.3-2.1c0.1-0.1,0.1-0.2,0.2-0.3c0.1-0.1,0.1,0,0.1,0.1l0,0C49.2,24.8,49.2,24.9,49.1,25
		z"/>
	<path class="st4" d="M61.8,50.4c-1.6,0.1-3-1.3-3-3.1c0-1.5,1.3-3.1,3.1-3.1c1.7,0,3.1,1.4,3,3.2C64.9,49,63.6,50.5,61.8,50.4z"/>
	<path class="st4" d="M41.2,47.3c0,0.6-0.2,1.2-0.5,1.7c-0.4,0.5-0.8,0.9-1.4,1.1c-0.9,0.3-1.7,0.3-2.5-0.1c-0.1,0-0.2-0.1-0.3-0.2
		c-0.7-0.5-1.1-1.2-1.3-2C35,47,35.3,46,35.8,45.4c0.4-0.6,1-0.9,1.8-1.1c0.2,0,0.3-0.1,0.5-0.1c0.7,0,1.3,0.2,1.8,0.5
		c0.4,0.4,0.8,0.6,1,1.1c0.1,0.2,0.2,0.4,0.3,0.6C41.2,46.8,41.2,47,41.2,47.3z"/>
	<path class="st2" d="M49.1,25c0-0.1,0-0.1,0.1-0.2C49.2,24.9,49.2,24.9,49.1,25z"/>
	<path class="st2" d="M50.7,24.6c0,0,0.1,0.1,0.1,0.1C50.7,24.7,50.7,24.7,50.7,24.6z"/>
	<path class="st2" d="M69.8,62c0.1,0,0.1,0,0.1,0.1C69.8,62,69.8,62,69.8,62z"/>
	<path class="st2" d="M69.9,62C69.9,62,69.9,62,69.9,62C69.9,62.1,69.9,62.1,69.9,62z"/>
	<path class="st0" d="M61.9,50c-0.8,0-1.5-0.3-2-1C59,48,59,46.4,60,45.5c0.7-0.7,1.6-1,2.6-0.7c1,0.3,1.6,1,1.8,1.9
		c0.3,1.4-0.4,2.7-1.7,3.1c-0.1,0-0.3,0.1-0.4,0.1C62.1,50,62,50,61.9,50z"/>
	<path class="st0" d="M38.1,50c-1.5,0-2.7-1.3-2.6-2.8c0.1-1.1,0.8-2,1.8-2.4c1.4-0.5,3,0.4,3.4,1.8c0.4,1.5-0.5,3-2,3.4
		C38.5,50,38.3,50,38.1,50z"/>
</g>
</svg>
